<svg id="SvgjsSvg1001" width="288" height="288" xmlns="http://www.w3.org/2000/svg" version="1.1" xmlns:xlink="http://www.w3.org/1999/xlink" xmlns:svgjs="http://svgjs.com/svgjs"><defs id="SvgjsDefs1002"></defs><g id="SvgjsG1008" transform="matrix(1,0,0,1,0,0)"><svg xmlns="http://www.w3.org/2000/svg" width="288" height="288" enable-background="new 0 0 128 128" viewBox="0 0 128 128"><path fill="#fd91be" d="M66.2 29.7V18c0-1.1-.9-2-2-2s-2 .9-2 2v11.7c-1.6.8-2.8 2.4-2.8 4.3 0 2.6 2.1 4.8 4.8 4.8S69 36.6 69 34C69 32.1 67.9 30.4 66.2 29.7zM96.2 29.7V18c0-1.1-.9-2-2-2s-2 .9-2 2v11.7c-1.6.8-2.8 2.4-2.8 4.3 0 2.6 2.1 4.8 4.8 4.8S99 36.6 99 34C99 32.1 97.9 30.4 96.2 29.7z" class="color2C3E50 svgShape"></path><rect width="22" height="4" x="38.2" y="23" fill="#fd91be" class="color2C3E50 svgShape"></rect><rect width="22" height="4" x="68.2" y="23" fill="#fd91be" class="color2C3E50 svgShape"></rect><path fill="#fd91be" d="M36.2,29.7V18c0-1.1-0.9-2-2-2s-2,0.9-2,2v11.7c-1.6,0.8-2.8,2.4-2.8,4.3c0,2.6,2.1,4.8,4.8,4.8  S39,36.6,39,34C39,32.1,37.9,30.4,36.2,29.7z" class="color2C3E50 svgShape"></path><path fill="#fd91be" d="M111,23H98v4h13c3.3,0,6,2.7,6,6v11H11V33c0-3.3,2.7-6,6-6h13v-4H17c-5.5,0-10,4.5-10,10v66  c0,5.5,4.5,10,10,10h94c5.5,0,10-4.5,10-10V33C121,27.5,116.5,23,111,23z M111,105H17c-3.3,0-6-2.7-6-6V48h106v51  C117,102.3,114.3,105,111,105z" class="color2C3E50 svgShape"></path><circle cx="51" cy="60" r="3.3" fill="#fd91be" class="color3B97D3 svgShape"></circle><circle cx="38.8" cy="60" r="3.3" fill="#fd91be" class="color3B97D3 svgShape"></circle><circle cx="99.8" cy="60" r="3.3" fill="#fd91be" class="color3B97D3 svgShape"></circle><circle cx="26.6" cy="71.1" r="3.3" fill="#fd91be" class="color3B97D3 svgShape"></circle><circle cx="38.8" cy="71.1" r="3.3" fill="#fd91be" class="color3B97D3 svgShape"></circle><circle cx="51" cy="71.1" r="3.3" fill="#fd91be" class="color3B97D3 svgShape"></circle><circle cx="63.2" cy="71.1" r="3.3" fill="#fd91be" class="color3B97D3 svgShape"></circle><circle cx="75.4" cy="71.1" r="3.3" fill="#fd91be" class="color3B97D3 svgShape"></circle><circle cx="87.5" cy="71.1" r="3.3" fill="#fd91be" class="color3B97D3 svgShape"></circle><circle cx="38.8" cy="82.3" r="3.3" fill="#fd91be" class="color3B97D3 svgShape"></circle><circle cx="51" cy="82.3" r="3.3" fill="#fd91be" class="color3B97D3 svgShape"></circle><circle cx="63.2" cy="82.3" r="3.3" fill="#fd91be" class="color3B97D3 svgShape"></circle><circle cx="75.4" cy="82.3" r="3.3" fill="#fd91be" class="color3B97D3 svgShape"></circle><circle cx="87.5" cy="82.3" r="3.3" fill="#fd91be" class="color3B97D3 svgShape"></circle><circle cx="63.2" cy="60.3" r="3.3" fill="#fd91be" class="color3B97D3 svgShape"></circle><circle cx="75.4" cy="60.3" r="3.3" fill="#fd91be" class="color3B97D3 svgShape"></circle><circle cx="87.5" cy="60.3" r="3.3" fill="#fd91be" class="color3B97D3 svgShape"></circle><circle cx="99.7" cy="71.1" r="3.3" fill="#fd91be" class="color3B97D3 svgShape"></circle><circle cx="99.8" cy="82.3" r="3.3" fill="#fd91be" class="color3B97D3 svgShape"></circle><circle cx="26.6" cy="81.9" r="3.3" fill="#fd91be" class="color3B97D3 svgShape"></circle><circle cx="26.6" cy="92.8" r="3.3" fill="#fd91be" class="color3B97D3 svgShape"></circle><circle cx="38.8" cy="92.8" r="3.3" fill="#fd91be" class="color3B97D3 svgShape"></circle><circle cx="51" cy="92.8" r="3.3" fill="#fd91be" class="color3B97D3 svgShape"></circle><circle cx="63.2" cy="92.8" r="3.3" fill="#fd91be" class="color3B97D3 svgShape"></circle></svg></g></svg>