<svg id="SvgjsSvg1049" width="288" height="288" xmlns="http://www.w3.org/2000/svg" version="1.1" xmlns:xlink="http://www.w3.org/1999/xlink" xmlns:svgjs="http://svgjs.com/svgjs"><defs id="SvgjsDefs1050"></defs><g id="SvgjsG1051" transform="matrix(1,0,0,1,0,0)"><svg xmlns="http://www.w3.org/2000/svg" enable-background="new 0 0 512 512" viewBox="0 0 512 512" width="288" height="288"><path d="M329.3,232c-1.4,0-2.8-0.6-3.8-1.7L292.7,193H273c-2.8,0-5-2.2-5-5v-47.3l-9.2-5
				c-1.1-0.6-2-1.6-2.4-2.9l-9.6-30.1c-0.7-2.1,0.1-4.3,1.9-5.6l40.8-28.8c1.3-0.9,2.9-1.2,4.4-0.7c1.5,0.5,2.7,1.7,3.2,3.2l8.3,25
				l32.7,8.4l2.2-2.5c6-7,16-8.8,24.1-4.5c5.9,3.1,9.8,8.9,10.5,15.4l2.8,26.9c0.1,1.1-0.1,2.2-0.7,3.1l-6.1,9.9l6.6,19.7l-9.5,3.2
				l-7.3-21.9c-0.5-1.4-0.3-2.9,0.5-4.2l6.4-10.4l-2.6-25.2c-0.3-3.3-2.3-6.1-5.2-7.6c-4-2.1-8.9-1.2-11.9,2.2l-4.2,4.8
				c-1.2,1.4-3.2,2-5,1.6l-38.4-9.8c-1.6-0.4-3-1.7-3.5-3.3l-7-21.2l-32.3,22.8l7.9,24.7l10.1,5.4c1.6,0.9,2.6,2.6,2.6,4.4V183h17
				c1.4,0,2.8,0.6,3.8,1.7l31.3,35.6l7.6-5.5l27-20.3c1.1-0.8,2.5-1.2,3.9-0.9c1.4,0.2,2.6,1,3.3,2.2l18.6,28.5l-8.4,5.5l-15.7-24
				l-22.8,17.1c0,0-0.1,0-0.1,0.1l-11.4,8.1C331.3,231.7,330.3,232,329.3,232z" fill="#f7345e" class="color000 svgShape"></path><rect width="10" height="24.6" x="303.4" y="172.7" transform="rotate(36.366 308.439 185.026)" fill="#f7345e" class="color000 svgShape"></rect><path d="M264.3 135.2l-6.3-7.8 16.9-13.7c.6-.5 1.2-.8 1.9-1l14.7-3.6 2.4 9.7-13.6 3.4L264.3 135.2zM507 512H337c-2.8 0-5-2.2-5-5v-39h10v34h160V310.4c0-39.5-17.3-76.5-47.5-101.8l-64.7 22.4c-16.2 32.2-28.4 66.3-36.5 101.4l-9.7-2.2c8.4-36.6 21.2-72.1 38.2-105.5.6-1.2 1.6-2 2.8-2.5l69.2-24c1.6-.6 3.4-.3 4.8.8 33.9 27.3 53.3 67.8 53.3 111.3V507C512 509.8 509.8 512 507 512z" fill="#f7345e" class="color000 svgShape"></path><rect width="78.5" height="10" x="396.8" y="164.1" transform="rotate(60.212 436.022 169.1)" fill="#f7345e" class="color000 svgShape"></rect><path d="M373.3 145l-1.1-9.9 38.9-4.4-5.5-63.3c-.3-2.9-.7-5.8-1.4-8.7C397.6 30 372.5 10 343.2 10c-26.3 0-51.4 8.2-72.7 23.6l-59 42.9 13.2 3.7c1.9.5 3.3 2.1 3.6 4.1l2 13.8 21-1.9.9 10-25.7 2.3c-2.7.2-5-1.6-5.4-4.3l-2.2-15.3-20-5.6c-1.8-.5-3.2-2-3.6-3.9-.3-1.9.4-3.8 2-4.9l67.3-48.9C287.6 8.8 314.8 0 343.2 0c34 0 63.1 23.2 70.8 56.3.8 3.3 1.3 6.7 1.6 10.1l5.9 68.2c.2 2.7-1.7 5.1-4.4 5.4L373.3 145zM406.3 425.4c-.9 0-1.8-.2-2.6-.7l-79.6-47.4c-2.3-1.4-3.1-4.3-1.9-6.6l41.3-79.1 8.9 4.6-39.1 74.9 71.5 42.6 41.6-60.9c13.5-19.7 20.6-42.8 20.6-66.7h10c0 25.9-7.7 51-22.3 72.4l-44.2 64.8C409.5 424.7 407.9 425.4 406.3 425.4z" fill="#f7345e" class="color000 svgShape"></path><path d="M169.2,471H128c-0.3,0-0.5,0-0.8-0.1l-38-6.3c-2.4-0.4-4.2-2.5-4.2-4.9v-44.1c0-1.9,1.1-3.6,2.7-4.5
				l21-10.6c0.7-0.4,1.5-0.5,2.3-0.5h7.5l8.1-11c0.9-1.3,2.4-2,4-2h33.9c1,0,2,0.3,2.8,0.9l24.2,16.4l121.3-18.8l9.9-15.2
				c1.5-2.3,4.4-2.9,6.8-1.6l62.3,37.2c1.3,0.8,2.2,2.1,2.4,3.6c0.2,1.5-0.3,3-1.3,4.1l-35.6,37.9c-0.9,1-2.3,1.6-3.6,1.6h-154
				l-27.6,17.2C171.1,470.7,170.2,471,169.2,471z M128.4,461h39.4l27.6-17.2c0.8-0.5,1.7-0.8,2.7-0.8h153.3l29.9-31.8l-52.8-31.5
				l-8.5,13c-0.8,1.2-2,2-3.4,2.2L191,414.4c-1.2,0.2-2.5-0.1-3.6-0.8L162.9,397h-29.8l-8.1,11c-0.9,1.3-2.4,2-4,2h-8.8L95,418.7
				v36.8L128.4,461z" fill="#f7345e" class="color000 svgShape"></path><rect width="30" height="10" x="121" y="400" fill="#f7345e" class="color000 svgShape"></rect><rect width="10" height="31.8" x="100.5" y="406.1" transform="rotate(77.32 105.509 421.994)" fill="#f7345e" class="color000 svgShape"></rect><rect width="31" height="10" x="90" y="431" fill="#f7345e" class="color000 svgShape"></rect><rect width="31.2" height="10" x="89.9" y="443.2" transform="rotate(6.28 105.57 448.404)" fill="#f7345e" class="color000 svgShape"></rect><path d="M285 145c-.4 0-.8 0-1.2-.1-1.5-.4-2.7-1.4-3.4-2.7l-4.9-10.3 9-4.3 2.2 4.7 11.2-8.7 6.2 7.9-16.1 12.6C287.2 144.6 286.1 145 285 145zM225.9 512H5c-2 0-3.8-1.2-4.6-3-.8-1.8-.4-3.9.9-5.4l60-64.4 8.3-47.1c-2.2-9.3-17.5-74.1-16.8-95.6 1.3-41.4 54.7-62.5 77.3-62.5 0 0 .1 0 .1 0 12.5 0 20.8 4.9 27.5 8.9 6.7 4 10.8 6.2 16.5 4.8 7.5-1.8 14.1-6.5 20-10.7 6.2-4.4 11.6-8.1 17.3-8.5 7.5-.5 14.3 8.3 16.9 12.1 8.2 12 14.6 32.6 6 51.1-6.2 13.2-18.5 23.7-30.4 33.8-11.6 9.9-22.6 19.2-23.5 28.1-.4 3.3.7 11.9 11.9 31.6l-8.7 4.9c-9.7-17.2-14-29.5-13.1-37.6 1.4-12.9 13.8-23.5 27-34.7 11.1-9.4 22.6-19.2 27.8-30.5 7.6-16.3-.4-33-3.1-37.8-4.2-7.4-8.7-11-10.2-11.2-2.9.2-7.4 3.4-12.1 6.7-6.3 4.4-14.1 9.9-23.4 12.2-10 2.4-17.1-1.7-24-5.9-6.2-3.8-12.7-7.5-22.4-7.5 0 0-.1 0-.1 0-19.1 0-66.2 18.4-67.3 52.8-.7 21.4 16.6 93.3 16.7 94.1.2.7.2 1.3.1 2l-8.7 49.5c-.2 1-.6 1.8-1.3 2.5l-53.2 57h203.7l-6.8-53.4 9.9-1.3 7.5 59c.2 1.4-.3 2.9-1.2 3.9C228.7 511.4 227.4 512 225.9 512z" fill="#f7345e" class="color000 svgShape"></path><rect width="15.7" height="10" x="135.5" y="262.1" transform="rotate(46.621 143.314 267.117)" fill="#f7345e" class="color000 svgShape"></rect><path d="M194.6 304.6l-5.2-8.5c31.5-19.4 36.3-40.8 36.3-41.1l9.8 2C235.3 258.1 229.8 283 194.6 304.6zM127.9 386.9c-9.2 0-31.3-.5-37.6-5.1-8.2-6-19.7-37-23-46.4l9.4-3.3c6.3 17.8 15.5 38.8 19.5 41.7 2 1.3 12.8 3.1 30.8 3.2 17.3 0 28.1-1.6 30.6-2.8 2.7-4.9-1.2-30.8-5.8-38.3-1.3-2-6.4-4.1-11.3-6.1-9.2-3.7-20.7-8.4-28-19-12-17.4-10.6-40.7-10.5-41.6l10 .7-5-.3 5 .3c0 .2-1.2 20.8 8.7 35.3 5.6 8.2 15.1 12 23.5 15.4 7 2.8 13.1 5.3 16.1 10.1 4.7 7.6 13 42.1 4.4 50.7C159.9 385.9 142.1 386.9 127.9 386.9z" fill="#f7345e" class="color000 svgShape"></path><rect width="26.6" height="10" x="198.1" y="237.1" transform="rotate(7.452 211.443 242.176)" fill="#f7345e" class="color000 svgShape"></rect></svg></g></svg>