<svg id="SvgjsSvg1001" width="288" height="288" xmlns="http://www.w3.org/2000/svg" version="1.1" xmlns:xlink="http://www.w3.org/1999/xlink" xmlns:svgjs="http://svgjs.com/svgjs"><defs id="SvgjsDefs1002"></defs><g id="SvgjsG1008" transform="matrix(1,0,0,1,0,0)"><svg xmlns="http://www.w3.org/2000/svg" enable-background="new 0 0 512 512" viewBox="0 0 512 512" width="288" height="288"><path d="M195.1 249.8c-47.8 0-86.6-38.8-86.6-86.6v-52.6h10v52.6c0 42.2 34.4 76.6 76.6 76.6 16.7 0 32.6-5.3 45.9-15.3l6 8C231.9 243.8 214 249.8 195.1 249.8zM277.5 190l-9.5-3.1c2.5-7.6 3.7-15.6 3.7-23.7v-52.6h10v52.6C281.7 172.4 280.3 181.4 277.5 190z" fill="#f7345e" class="color000 svgShape"></path><path d="M180 160h-10v-16h-7v-10h12.1c2.8 0 4.9 2.2 4.9 5V160zM220 160h-10v-21c0-2.8 2.3-5 5.1-5H227v10h-7V160zM113.5 166h-13.2c-16.7 0-30.2-13.5-30.2-30.2s13.5-30.2 30.2-30.2h13.2c2.8 0 5 2.2 5 5V161C118.5 163.8 116.2 166 113.5 166zM100.3 115.6c-11.1 0-20.2 9.1-20.2 20.2s9.1 20.2 20.2 20.2h8.2v-40.4H100.3zM289.9 166h-13.2c-2.8 0-5-2.2-5-5v-50.4c0-2.8 2.2-5 5-5h13.2c16.7 0 30.2 13.5 30.2 30.2S306.5 166 289.9 166zM281.7 156h8.2c11.1 0 20.2-9.1 20.2-20.2s-9.1-20.2-20.2-20.2h-8.2V156z" fill="#f7345e" class="color000 svgShape"></path><path d="M290.1 115.6h-17.5c-18.6 0-33.8-15.2-33.8-33.8V76c-31.1 25.6-69.9 39.6-110.5 39.6h-28.3c-2.3 0-4.3-1.6-4.9-3.8l-5.4-22.9c-5.1-21.6-.1-44 13.6-61.4C117.2 10 137.8 0 160.1 0h70.1c22.2 0 42.9 10 56.6 27.4 13.8 17.4 18.7 39.8 13.6 61.4l-5.4 22.9C294.4 114 292.4 115.6 290.1 115.6zM243.8 60c.7 0 1.3.1 2 .4 1.8.8 3 2.6 3 4.6v16.8c0 13.1 10.7 23.8 23.8 23.8h13.5l4.5-19.1c4.4-18.6.1-37.9-11.7-52.9S249.3 10 230.1 10h-70.1c-19.1 0-36.9 8.6-48.8 23.6S95.1 67.9 99.5 86.5l4.5 19.1h24.3c41.8 0 81.6-15.7 112-44.3C241.3 60.5 242.6 60 243.8 60zM195.1 194.4c-9.3 0-18.2-4.1-24.2-11.2l7.6-6.5c4.1 4.9 10.2 7.7 16.6 7.7s12.4-2.8 16.6-7.7l7.6 6.5C213.2 190.4 204.4 194.4 195.1 194.4zM207.5 301.4h-24.9c-18.4 0-33.3-15-33.3-33.4 0-2.2 1.4-4.1 3.5-4.8l13.3-4.2v-17.9h10v21.6c0 2.2-1.4 4.1-3.5 4.8l-13 4.1c1.7 11.2 11.4 19.8 23.1 19.8h24.9c11.7 0 21.3-8.6 23.1-19.8l-13-4.1c-2.1-.7-3.5-2.6-3.5-4.8v-21.6h10v17.9l13.3 4.2c2.1.7 3.5 2.6 3.5 4.8C240.9 286.4 225.9 301.4 207.5 301.4zM135.1 486h-10V369.8H94.3v-10h35.8c2.8 0 5 2.2 5 5V486z" fill="#f7345e" class="color000 svgShape"></path><rect width="10" height="36" x="255.1" y="343" fill="#f7345e" class="color000 svgShape"></rect><rect width="10" height="34.1" x="255.1" y="472.9" fill="#f7345e" class="color000 svgShape"></rect><rect width="10" height="22" x="125" y="343" fill="#f7345e" class="color000 svgShape"></rect><path d="M113.5 242.6c-23.9 0-43.6-19.5-43.6-43.4S89 155.8 113 155.8v10c-18 0-33.2 15-33.2 33.4 0 18.4 15.1 33.4 33.5 33.4 9.4 0 18.4-4 24.8-10.9l7.4 6.7C137.3 237.4 125.7 242.6 113.5 242.6zM299.6 175.3c-6.3-6.1-14.6-9.5-23.6-9.5v-10c12 0 22.3 4.4 30.4 12.4L299.6 175.3zM260.1 512h-130c-22.5 0-40.8-18.3-40.8-40.8V330.9c0-28.6 18.3-53.5 45.6-62l34.7-10.8 3 9.5-34.7 10.8c-23.1 7.2-38.6 28.3-38.6 52.5v140.3c0 17 13.8 30.8 30.8 30.8h130c9 0 17.5-3.9 23.4-10.8l7.6 6.5C283.3 506.8 272 512 260.1 512zM254.4 279.1c-.7-.3-1.4-.5-2.1-.7l-34.7-10.8 3-9.5 34.7 10.8c.8.3 1.7.5 2.5.8L254.4 279.1zM366.8 511.8h-53.4c-10.3 0-18.7-8.4-18.7-18.7 0-9.4 6.9-17.1 15.9-18.5l-15.8-95.9 9.9-1.6 16.8 101.5c.2 1.4-.2 2.9-1.1 4-1 1.1-2.3 1.8-3.8 1.8h-3.1c-4.8 0-8.7 3.9-8.7 8.7s3.9 8.7 8.7 8.7h53.4c4.8 0 8.7-3.9 8.7-8.7s-3.9-8.7-8.7-8.7h-3.1c-1.5 0-2.9-.6-3.8-1.8-.9-1.1-1.4-2.6-1.1-4L375.6 377l9.9 1.6-15.8 95.9c9 1.3 15.9 9.1 15.9 18.5C385.5 503.4 377.1 511.8 366.8 511.8z" fill="#f7345e" class="color000 svgShape"></path><rect width="10" height="133" x="335" y="373" fill="#f7345e" class="color000 svgShape"></rect><path d="M274.5,295.5c-6.8,0-13.1-3.4-16.8-9.1l-9.7-14.9l0,0c-6.4-9.8-9.8-21.2-9.8-33c0-21.5,11.6-41.6,30.3-52.3l18.7-10.7c1.5-0.9,3.4-0.9,5,0c1.5,0.9,2.5,2.5,2.5,4.3v95.6C294.5,286.5,285.5,295.5,274.5,295.5z M256.3,266l9.7,14.9c1.9,2.9,5,4.6,8.4,4.6c5.6,0,10.1-4.5,10.1-10.1v-87l-11.2,6.4c-15.6,8.9-25.3,25.7-25.3,43.6C248.1,248.3,250.9,257.8,256.3,266L256.3,266z" fill="#f7345e" class="color000 svgShape"></path><path d="M405.7,295.5c-11,0-19.9-8.9-20.1-19.8l-12.9,9.3c-9.6,6.9-20.8,10.5-32.6,10.5s-23.1-3.6-32.6-10.5l-20.9-15c-1.3-0.9-2.1-2.4-2.1-4.1v-86.1c0-1.6,0.8-3.1,2-4c14.3-10.5,31.2-16,48.9-16h9.3c17.6,0,34.4,5.5,48.6,15.8l18.4,10.6c18.7,10.7,30.3,30.8,30.3,52.3c0,11.8-3.4,23.2-9.8,33l-9.7,14.9C418.8,292.1,412.5,295.5,405.7,295.5z M385.6,199.8h10v75.6c0,5.6,4.5,10.1,10.1,10.1c3.4,0,6.6-1.7,8.4-4.6l9.7-14.9c5.4-8.2,8.2-17.7,8.2-27.5c0-18-9.7-34.7-25.3-43.6l-18.7-10.7c-0.2-0.1-0.3-0.2-0.5-0.3c-12.5-9.2-27.4-14.1-42.9-14.1h-9.3c-14.7,0-28.8,4.4-40.9,12.6v80.9l18.8,13.5c7.8,5.7,17.1,8.6,26.8,8.6s18.9-3,26.8-8.6l18.8-13.5V199.8z" fill="#f7345e" class="color000 svgShape"></path><rect width="10" height="14" x="315" y="227" fill="#f7345e" class="color000 svgShape"></rect><rect width="10" height="14" x="355" y="227" fill="#f7345e" class="color000 svgShape"></rect><path d="M344.2,271H336c-7.3,0-13.2-5.9-13.2-13.2h10c0,1.8,1.4,3.2,3.2,3.2h8.2c1.8,0,3.2-1.4,3.2-3.2h10C357.4,265.1,351.5,271,344.2,271z" fill="#f7345e" class="color000 svgShape"></path><rect width="16" height="10" x="332" y="244" fill="#f7345e" class="color000 svgShape"></rect><rect width="10" height="17" x="335" y="249" fill="#f7345e" class="color000 svgShape"></rect><path d="M379.4 505.9l-3.3-9.4c16.8-5.8 31.7-16.2 42.9-30 8.4-10.4 13.1-23.5 13.1-36.8 0-8.4-1.9-16.9-5.4-24.6l-40.6-87.4c-.3-.7-.5-1.4-.5-2.1v-50.1h10v49l40.1 86.4c4.2 9 6.4 18.9 6.4 28.8 0 15.7-5.4 31-15.3 43.1C414.3 488 397.9 499.5 379.4 505.9zM300.7 505.9c-18.5-6.5-34.9-17.9-47.2-33.1-9.9-12.2-15.3-27.5-15.3-43.1 0-9.9 2.2-19.8 6.4-28.8l40.1-86.4v-49h10v50.1c0 .7-.2 1.4-.5 2.1L253.5 405c-3.6 7.6-5.4 16.1-5.4 24.6 0 13.4 4.6 26.5 13.1 36.8 11.2 13.8 26 24.2 42.8 30L300.7 505.9z" fill="#f7345e" class="color000 svgShape"></path></svg></g></svg>