<svg id="SvgjsSvg1026" width="288" height="288" xmlns="http://www.w3.org/2000/svg" version="1.1" xmlns:xlink="http://www.w3.org/1999/xlink" xmlns:svgjs="http://svgjs.com/svgjs"><defs id="SvgjsDefs1027"></defs><g id="SvgjsG1028" transform="matrix(1,0,0,1,0,0)"><svg xmlns="http://www.w3.org/2000/svg" enable-background="new 0 0 512 512" viewBox="0 0 512 512" width="288" height="288"><circle cx="192.322" cy="55.004" r="38.712" fill="none" stroke="#f7345e" stroke-linecap="round" stroke-linejoin="round" stroke-miterlimit="10" stroke-width="15" class="colorStroke474747 svgStroke"></circle><path fill="none" stroke="#f7345e" stroke-linecap="round" stroke-linejoin="round" stroke-miterlimit="10" stroke-width="15" d="				M239.661,255.642l1.214-49.908 M233.715,500.16l2.341-96.254" class="colorStroke474747 svgStroke"></path><line x1="194.472" x2="194.472" y1="298.278" y2="336.934" fill="none" stroke="#f7345e" stroke-linecap="round" stroke-linejoin="round" stroke-miterlimit="10" stroke-width="15" class="colorStroke474747 svgStroke"></line><path fill="none" stroke="#f7345e" stroke-linecap="round" stroke-linejoin="round" stroke-miterlimit="10" stroke-width="15" d="M215.517 111.028l13.519 3.511c15.585 4.047 27.761 15.861 32.449 30.934 3.111 10.002 11.274 40.35 11.274 40.35M149.628 184.004l1.564 123.649M171.825 111.028l-13.519 3.511c-15.585 4.047-27.761 15.861-32.449 30.934-3.111 10.002-6.067 20.051-9.418 29.975L80.736 281.147c-1.717 6.542.618 13.229 5.502 17.339 0 0 7.578 7.858 20.289 1.198 3.075-1.611 5.247-4.709 6.566-8.187l36.534-107.493" class="colorStroke474747 svgStroke"></path><circle cx="384.484" cy="78.1" r="36.704" fill="none" stroke="#f7345e" stroke-linecap="round" stroke-linejoin="round" stroke-miterlimit="10" stroke-width="15" class="colorStroke474747 svgStroke"></circle><path fill="none" stroke="#f7345e" stroke-linecap="round" stroke-linejoin="round" stroke-miterlimit="10" stroke-width="15" d="M417.013 500.16l2.834-82.797h56.521l-54.454-182.708 3.203-43.921M350.78 417.363l2.834 82.797M345.51 192.734l3.203 41.921-6.255 20.987" class="colorStroke474747 svgStroke"></path><line x1="386.523" x2="386.523" y1="417.363" y2="500.16" fill="none" stroke="#f7345e" stroke-linecap="round" stroke-linejoin="round" stroke-miterlimit="10" stroke-width="15" class="colorStroke474747 svgStroke"></line><path fill="none" stroke="#f7345e" stroke-linecap="round" stroke-linejoin="round" stroke-miterlimit="10" stroke-width="15" d="M406.477 131.218l12.818 3.328c16.888 4.385 29.553 18.389 32.225 35.631l41.32 122.333c2.187 8.33-2.558 16.909-10.776 19.484h0c-8.148 2.553-16.874-1.687-19.902-9.671l-37.043-111.589M365.051 131.218l-12.818 3.328c-16.888 4.385-29.553 18.389-32.225 35.631l-2.353 16.646M415.67 57.894c0 0 .301-22.165 21.273-25.398 23.737-3.66 20.473 20.006 53.29 6.133 0 0-21.499 33.357-52.552 20.359-2.075-.868-4.238-1.511-6.461-1.855C426.72 56.435 419.576 55.798 415.67 57.894z" class="colorStroke474747 svgStroke"></path><g fill="#f7345e" class="color000 svgShape"><circle cx="292.186" cy="229.173" r="26.469" fill="none" stroke="#f7345e" stroke-linecap="round" stroke-linejoin="round" stroke-miterlimit="10" stroke-width="15" class="colorStroke474747 svgStroke"></circle><path fill="none" stroke="#f7345e" stroke-linecap="round" stroke-linejoin="round" stroke-miterlimit="10" stroke-width="15" d="
			M322.054,500.16l2.209-192.507" class="colorStroke474747 svgStroke"></path><line x1="292.49" x2="292.49" y1="375.589" y2="500.16" fill="none" stroke="#f7345e" stroke-linecap="round" stroke-linejoin="round" stroke-miterlimit="10" stroke-width="15" class="colorStroke474747 svgStroke"></line><path fill="none" stroke="#f7345e" stroke-linecap="round" stroke-linejoin="round" stroke-miterlimit="10" stroke-width="15" d="M310.825 268.961l8.342 2.166c9.617 2.497 18.913 9.787 21.806 19.088 1.92 6.172 26.058 74.803 26.058 74.803 1.423 5.421-1.665 11.004-7.013 12.68h0c-5.303 1.662-10.982-1.098-12.952-6.294l-22.803-63.752M261.928 307.653l.903 192.507M274.059 268.961l-8.342 2.166c-9.617 2.497-18.913 9.787-21.806 19.088-1.92 6.172-26.058 74.803-26.058 74.803-1.06 4.037.382 8.163 3.395 10.699 0 0 4.676 4.849 12.519.739 1.898-.994 3.238-2.905 4.052-5.052l24.109-63.752" class="colorStroke474747 svgStroke"></path></g><g fill="#f7345e" class="color000 svgShape"><path fill="none" stroke="#f7345e" stroke-linecap="round" stroke-linejoin="round" stroke-miterlimit="10" stroke-width="15" d="
			M63.927,403.907c-21.819,2.479-47.518,28.371-37.104,62.091s48.101,34.163,48.101,34.163l5.929-28.773
			c2.653-12.872,6.552-25.456,11.642-37.572l32.33-76.952l7.605-32.598l14.729,21.787h8.992c4.984,0,9.654,2.438,12.503,6.528
			l0.225,0.323c2.172,3.117,5.429,5.311,9.134,6.151l14.684,4.235v3.173c0,6.958-4.705,13.036-11.442,14.779l-19.929,6.193" class="colorStroke474747 svgStroke"></path><line x1="169.456" x2="178.563" y1="406.961" y2="500.16" fill="none" stroke="#f7345e" stroke-linecap="round" stroke-linejoin="round" stroke-miterlimit="10" stroke-width="15" class="colorStroke474747 svgStroke"></line><path fill="none" stroke="#f7345e" stroke-linecap="round" stroke-linejoin="round" stroke-miterlimit="10" stroke-width="15" d="
			M116.082,452.033l9.744-1.515c10.279-1.598,20.49,3.25,25.749,12.225l0,0c5.341,9.115,4.465,20.588-2.198,28.786l-7.014,8.63
			h51.076" class="colorStroke474747 svgStroke"></path><line x1="142.364" x2="74.923" y1="500.16" y2="500.16" fill="none" stroke="#f7345e" stroke-linecap="round" stroke-linejoin="round" stroke-miterlimit="10" stroke-width="15" class="colorStroke474747 svgStroke"></line></g><path fill="none" stroke="#f7345e" stroke-linecap="round" stroke-linejoin="round" stroke-miterlimit="10" stroke-width="15" d="
		M188.123,377.35c0,0,13.809-0.306,15.252,12.845" class="colorStroke474747 svgStroke"></path></svg></g></svg>