<svg id="SvgjsSvg1060" width="288" height="288" xmlns="http://www.w3.org/2000/svg" version="1.1" xmlns:xlink="http://www.w3.org/1999/xlink" xmlns:svgjs="http://svgjs.com/svgjs"><defs id="SvgjsDefs1061"></defs><g id="SvgjsG1062" transform="matrix(1,0,0,1,0,0)"><svg xmlns="http://www.w3.org/2000/svg" viewBox="0 0 512 512" width="288" height="288"><path d="M294.0609,328.4453a6.4,6.4,0,0,0-6.4,6.4,12.61,12.61,0,0,1-24.73,3.5141,9.99,9.99,0,0,0,.9535-.97L275.37,322.7047a10.0483,10.0483,0,0,0-7.914-16.2375H244.4875a10.0483,10.0483,0,0,0-7.9125,16.2375l11.4859,14.6844a10.1306,10.1306,0,0,0,.9524.97,12.61,12.61,0,0,1-24.73-3.5133,6.4,6.4,0,0,0-12.8,0,25.4657,25.4657,0,0,0,19.0809,24.6063,25.418,25.418,0,0,0,50.8179-.0008,25.4644,25.4644,0,0,0,19.0793-24.6055A6.4,6.4,0,0,0,294.0609,328.4453Zm-38.089,42.9469a12.6264,12.6264,0,0,1-12.5754-11.968,25.4413,25.4413,0,0,0,12.5756-7.7617,25.4418,25.4418,0,0,0,12.5767,7.7617A12.6279,12.6279,0,0,1,255.9719,371.3922Z" fill="#fd91be" class="color000 svgShape"></path><path d="M463.15,310.7859A29.6005,29.6005,0,0,0,450.6516,286.67a29.5157,29.5157,0,0,0-26.1094-42.3937,29.3518,29.3518,0,0,0-20.1916-22.6743,29.4892,29.4892,0,0,0-18.485-32.4007,29.5038,29.5038,0,0,0-26.97-36.8219,29.5336,29.5336,0,0,0-37.0266-26.7313,29.5605,29.5605,0,0,0-43.5109-13.9875,29.4914,29.4914,0,0,0-22.764-10.7062h-.0875a29.4283,29.4283,0,0,0-22.78,10.8406,29.5249,29.5249,0,0,0-43.4157,14.25A29.5351,29.5351,0,0,0,152.45,152.9766,29.5377,29.5377,0,0,0,125.6781,189.97a29.5437,29.5437,0,0,0-18.4092,31.7274,29.3689,29.3689,0,0,0-19.8095,22.5789A29.5151,29.5151,0,0,0,61.3484,286.67,29.6005,29.6005,0,0,0,48.85,310.7859v.0532a29.5528,29.5528,0,0,0,14.9016,25.5843A29.3614,29.3614,0,0,0,73.4125,368.73h.0031a29.5564,29.5564,0,0,0,38.6985-1.6625,29.75,29.75,0,0,0,34.4515-3.7438,28.9139,28.9139,0,0,0,3.7149-4.1765c.8484.1226,1.6994.2343,2.56.2828a29.5488,29.5488,0,0,0,36.9735,26.7937A29.5558,29.5558,0,0,0,233.3,400.2828a29.3851,29.3851,0,0,0,22.7437,10.7625h.0876a29.4049,29.4049,0,0,0,22.7953-10.7937,29.5641,29.5641,0,0,0,43.4593-14.1563,29.5006,29.5006,0,0,0,36.9078-26.8719c.7709-.0437,1.5313-.1539,2.2924-.2578a28.9432,28.9432,0,0,0,3.85,4.3578,29.7467,29.7467,0,0,0,34.4594,3.7375,29.52,29.52,0,0,0,48.3531-30.6375A29.5525,29.5525,0,0,0,463.15,310.7859ZM147.0469,325.03a6.4011,6.4011,0,0,0-5.236,9.15,16.7183,16.7183,0,0,1-26.4125,19.5344,6.4008,6.4008,0,0,0-9.7656,1.2781,9.09,9.09,0,0,1-.7734,1.0719,16.6982,16.6982,0,0,1-27.0907-19.4594,6.3993,6.3993,0,0,0-3.7171-9.6781,16.7109,16.7109,0,0,1-1.3594-31.8657,6.3981,6.3981,0,0,0,2.6453-10.2437,16.7135,16.7135,0,0,1,16.5484-27.2563,6.4,6.4,0,0,0,7.9282-6.6687,16.7016,16.7016,0,0,1,33.1156-4.0438c.0828.475.1453.9563.1859,1.4532a6.4,6.4,0,0,0,7.95,5.6718,16.702,16.702,0,0,1,13.73,29.8157,6.4,6.4,0,0,0,.1375,10.5375,16.8494,16.8494,0,0,1,7.03,17.5781.302.302,0,0,0-.0141.05c-.0422.1375-.0859.2844-.1.3406-.0453.1625-.0828.3313-.114.4969l-.0157.0594A16.7654,16.7654,0,0,1,147.0469,325.03Zm206.7375,20.9969a6.4,6.4,0,0,0-7.6875,7.6875,16.7,16.7,0,0,1-24.8891,18.1312,6.3987,6.3987,0,0,0-9.6812,4.95,16.7242,16.7242,0,0,1-29.2969,9.5438,6.4,6.4,0,0,0-10.7391,1.6968,16.7093,16.7093,0,0,1-30.7812.0125,6.406,6.406,0,0,0-4.9063-3.8218,6.54,6.54,0,0,0-.9843-.075,6.3991,6.3991,0,0,0-4.85,2.225,16.7254,16.7254,0,0,1-29.3219-9.4875A6.4024,6.4024,0,0,0,190.95,371.97a16.7162,16.7162,0,0,1-24.9266-18.0719,6.3988,6.3988,0,0,0-7.6953-7.6687,16.6542,16.6542,0,0,1-2.5984.393,29.7735,29.7735,0,0,0,.0312-10.5336,29.602,29.602,0,0,0,18.2641-19.7219c.0047-.0125.1641-.5688.1688-.5813.0593-.2031.1093-.4062.1484-.6093.0094-.0407.0187-.0782.0281-.1188a29.7275,29.7275,0,0,0-6.45-26.175A29.489,29.489,0,0,0,145.0391,240.68c-.1578,0-.3141,0-.4719.0031a29.5225,29.5225,0,0,0-24.511-20.2726,16.6458,16.6458,0,0,1,14.9563-19.6055,6.3975,6.3975,0,0,0,4.92-9.6938,16.7222,16.7222,0,0,1,18.0719-24.9562,6.4018,6.4018,0,0,0,7.6625-7.7188,16.709,16.709,0,0,1,24.8594-18.15,6.3979,6.3979,0,0,0,9.6593-4.9625,16.723,16.723,0,0,1,29.2875-9.6093,6.3987,6.3987,0,0,0,10.7282-1.7375,16.6317,16.6317,0,0,1,15.3421-10.2219h.05a16.72,16.72,0,0,1,15.3906,10.1562,6.4,6.4,0,0,0,10.7437,1.6438,16.7113,16.7113,0,0,1,29.3094,9.4406,6.4014,6.4014,0,0,0,9.7109,4.9125,16.71,16.71,0,0,1,24.97,18.0219,6.4,6.4,0,0,0,7.714,7.6656A16.6939,16.6939,0,0,1,371.62,190.4172a6.3986,6.3986,0,0,0,4.9766,9.6687,16.6861,16.6861,0,0,1,14.93,20.39,29.4753,29.4753,0,0,0-24.0929,20.207,29.49,29.49,0,0,0-23.3531,48.2,29.7232,29.7232,0,0,0-6.4516,26.175c.0469.1969.1015.3875.164.575a6.5012,6.5012,0,0,0,.1594.6563,29.68,29.68,0,0,0,18.2875,19.8,29.7482,29.7482,0,0,0,.0014,10.3218A16.7947,16.7947,0,0,1,353.7844,346.0266Zm84.164-19.1a6.3994,6.3994,0,0,0-3.7172,9.6781,16.7,16.7,0,0,1-27.1875,19.3406,8.3349,8.3349,0,0,1-.6765-.9531,6.4018,6.4018,0,0,0-4.5828-2.9313,6.7822,6.7822,0,0,0-.8313-.0531,6.4046,6.4046,0,0,0-4.3515,1.7063,16.7177,16.7177,0,0,1-26.4125-19.5313,6.401,6.401,0,0,0-5.2344-9.1531,16.8672,16.8672,0,0,1-14.6891-12.2344c-.0312-.1687-.0687-.3344-.114-.5l-.0125-.0437c-.0407-.1813-.0875-.3594-.1422-.5344a16.8474,16.8474,0,0,1,7.07-17.3906,6.4,6.4,0,0,0,.1375-10.5375,16.7019,16.7019,0,0,1,13.73-29.8157,6.4,6.4,0,0,0,7.95-5.6718c.0406-.4969.1047-.9782.1875-1.4532a16.7022,16.7022,0,0,1,33.1156,4.0469,6.4011,6.4011,0,0,0,7.93,6.6656,16.7132,16.7132,0,0,1,16.5453,27.2563,6.3981,6.3981,0,0,0,2.6453,10.2437,16.7109,16.7109,0,0,1-1.3594,31.8657Z" fill="#fd91be" class="color000 svgShape"></path><path d="M221.4467 281.2945v-10.139a14.4 14.4 0 0 0-28.8 0v10.139a14.4 14.4 0 0 0 28.8 0zM304.8982 256.7555a14.4169 14.4169 0 0 0-14.4 14.4v10.139a14.4 14.4 0 0 0 28.8 0v-10.139A14.4168 14.4168 0 0 0 304.8982 256.7555z" fill="#fd91be" class="color000 svgShape"></path></svg></g></svg>