<svg id="SvgjsSvg1114" width="288" height="288" xmlns="http://www.w3.org/2000/svg" version="1.1" xmlns:xlink="http://www.w3.org/1999/xlink" xmlns:svgjs="http://svgjs.com/svgjs"><defs id="SvgjsDefs1115"></defs><g id="SvgjsG1116" transform="matrix(1,0,0,1,0,0)"><svg xmlns="http://www.w3.org/2000/svg" viewBox="0 0 64 64" width="288" height="288"><g data-name="01. Logo" fill="#39e75f" class="color000 svgShape"><path d="M57,33a6.21018,6.21018,0,0,0-1.168-4.05469A4.30559,4.30559,0,0,1,55,26a19.81246,19.81246,0,0,1,1.89453-7.55322,1.00024,1.00024,0,0,0-1.21094-1.39551c-4.14111,1.38037-5.70752,5.269-6.74414,7.84228A9.10437,9.10437,0,0,1,47.9165,27H40c-1.93848,0-7.83789,0-10.68359-.94873C26.57617,25.13818,22,18.4082,22,17c0-2.64453-3.30664-3.82324-3.68359-3.94873A1.00055,1.00055,0,0,0,17,14v2.3208a7.955,7.955,0,0,0-3.89453,3.23193A4.491,4.491,0,0,1,10,22a3.16029,3.16029,0,0,0-3,3c0,5,3.01074,5,4,5a16.62671,16.62671,0,0,1,3.02148.73584c.16895,2.82422,1.29493,4.20068,1.99463,4.79053.26416,4.29443,3.69873,7.104,4.99024,8.01416a8.06271,8.06271,0,0,0,.6206,3.34375A4.57854,4.57854,0,0,1,22,49a5.09782,5.09782,0,0,1-2.61475,3.81787A2.16347,2.16347,0,0,0,20.16016,57H25a1.00012,1.00012,0,0,0,.707-.293c2.71973-2.71924,3.855-10.0459,4.18652-12.71533a41.18424,41.18424,0,0,0,11.54786-1.73877,15.61362,15.61362,0,0,0,5.11132,4.6416C48.22412,47.73,50,49.45264,50,51c0,.87646-1.23291,1.56348-1.7627,1.81787A2.20255,2.20255,0,0,0,49.16016,57H54a.99985.99985,0,0,0,.89453-.55273A13.10973,13.10973,0,0,0,56,51a20.44589,20.44589,0,0,0-1.03857-5.2749A19.17048,19.17048,0,0,1,54,41a4.92921,4.92921,0,0,1,1.169-2.82666A8.605,8.605,0,0,0,57,33ZM49.16016,55C49.07178,55,49,54.92822,49,54.77051a.16729.16729,0,0,1,.103-.14942C50.97119,53.72363,52,52.43751,52,51c0-2.49951-2.28662-4.76123-4.55273-5.89453A13.21665,13.21665,0,0,1,43,41a1.00046,1.00046,0,0,0-1.37012-.92871A37.6559,37.6559,0,0,1,29,42a1.00013,1.00013,0,0,0-.99512.90039C27.74658,45.47705,26.6377,52.45557,24.55664,55H20.16016A.16162.16162,0,0,1,20,54.834a.17349.17349,0,0,1,.11816-.15527A7.02793,7.02793,0,0,0,24,49a6.44257,6.44257,0,0,0-.51953-2.86816A6.9556,6.9556,0,0,1,23,43a.99975.99975,0,0,0-.48535-.85742C22.46924,42.11523,18,39.3833,18,35a1.04749,1.04749,0,0,0-.5293-.88232C17.41064,34.0835,16,33.23926,16,30a1,1,0,0,0-.68359-.94873A21.28985,21.28985,0,0,0,11,28c-.9375,0-2,0-2-3a1.16952,1.16952,0,0,1,1-1,6.36057,6.36057,0,0,0,4.89453-3.55273c.66358-1.32715,2.69629-2.25391,3.42334-2.499A1.00225,1.00225,0,0,0,19,17V15.61963A1.91112,1.91112,0,0,1,20,17c0,2.564,5.45166,9.87109,8.68359,10.94873C31.83789,29,37.981,29,40,29h8c1.44092,0,2.03809-1.48242,2.79443-3.35937a13.84527,13.84527,0,0,1,3.21973-5.35157A18.8635,18.8635,0,0,0,53,26a6.21018,6.21018,0,0,0,1.168,4.05469A4.30559,4.30559,0,0,1,55,33a6.63619,6.63619,0,0,1-1.49121,4.05762A6.71808,6.71808,0,0,0,52,41a20.44589,20.44589,0,0,0,1.03857,5.2749A19.17048,19.17048,0,0,1,54,51a12.05021,12.05021,0,0,1-.67139,4Z" fill="#39e75f" class="color000 svgShape"></path><path d="M40.48535 36.14258C35.85938 38.919 29.20752 38.02 29.14063 38.00977a1 1 0 0 0-.28223 1.98 22.36589 22.36589 0 0 0 2.9414.1748 19.38893 19.38893 0 0 0 9.71485-2.30713 1 1 0 1 0-1.0293-1.71484zM52.55469 33.168a.9986.9986 0 0 0-1.38672.27734A14.77884 14.77884 0 0 0 49 41a1 1 0 0 0 2 0 12.95449 12.95449 0 0 1 1.8335-6.44727A.99994.99994 0 0 0 52.55469 33.168zM22.00037 35L22 34.99414A1 1 0 0 0 20 35a7.44335 7.44335 0 0 0 3.44531 5.832A1 1 0 1 0 24.55469 39.168 5.44859 5.44859 0 0 1 22.00037 35zM42.7962 15.33636l.00312.00055c.02331.00214.04614.00159.06933.00306l.01758.00085.00043-.00006c.05664.00323.11346.00738.16949.00738a2.94211 2.94211 0 0 0 2.93262-2.66845 2.89274 2.89274 0 0 0-.67139-2.127 2.95192 2.95192 0 0 0-5.19677 1.6167 2.89042 2.89042 0 0 0 .07489.90479l-.38971-.038L34.98145 7.353A.99977.99977 0 0 0 33.457 8.647l3.48956 4.11078L31.09717 12.188a.99985.99985 0 1 0-.19434 1.99023l7.903.76984.35614.41955A2.89827 2.89827 0 0 0 37.981 19.96a2.96527 2.96527 0 0 0 4.1416.35938 2.9085 2.9085 0 0 0 .36279-4.12647l-.82031-.96631 1.123.10938zm-1.6214 2.81843a.9089.9089 0 0 1-.32959.62548.96.96 0 0 1-1.33984-.11425v-.00049a.90809.90809 0 0 1 .11572-1.293.95975.95975 0 0 1 1.33985.11426A.90414.90414 0 0 1 41.1748 18.15479zm1.14893-5.14454a.90394.90394 0 0 1-.21094-.665.93774.93774 0 0 1 .94092-.84423c.02783 0 .05567.001.084.00341a.94614.94614 0 0 1 .64794.33448.90615.90615 0 0 1 .21094.66455.94593.94593 0 0 1-1.02484.84125l-.00116-.00013A.9447.9447 0 0 1 42.32373 13.01025zM32.73291 22.94043l-1.353 1.35254A.99989.99989 0 1 0 32.794 25.707l1.35351-1.35254a2.91772 2.91772 0 0 0-.00049-4.11963l-3.38183-3.38232a2.91817 2.91817 0 0 0-4.11963.00049l-1.35254 1.353A.99989.99989 0 1 0 26.707 19.62012l1.35254-1.35254a.90975.90975 0 0 1 1.2547-.02484l-1.99249 1.99212a.99989.99989 0 1 0 1.41406 1.41407l1.9986-1.99823.61486.61486-1.99823 1.9986a.99989.99989 0 1 0 1.41407 1.41406L32.757 21.686A.9103.9103 0 0 1 32.73291 22.94043z" fill="#39e75f" class="color000 svgShape"></path></g></svg></g></svg>