<svg id="SvgjsSvg1078" width="288" height="288" xmlns="http://www.w3.org/2000/svg" version="1.1" xmlns:xlink="http://www.w3.org/1999/xlink" xmlns:svgjs="http://svgjs.com/svgjs"><defs id="SvgjsDefs1079"></defs><g id="SvgjsG1080" transform="matrix(1,0,0,1,0,0)"><svg xmlns="http://www.w3.org/2000/svg" id="Layer_1" x="0" y="0" version="1.1" viewBox="0 0 65 66" xml:space="preserve" width="288" height="288"><path d="M58.7 8.8C41.1-1.6 23.5-1.6 6.3 8.8c-.6.4-1 1-1 1.7v17.9c0 16.7 10.7 31.3 26.5 36.4.2.1.4.1.6.1s.4 0 .6-.1c16-5 26.6-19.6 26.6-36.3V10.6c0-.7-.3-1.4-.9-1.8zm-3.1 19.7c0 14.7-9.3 27.6-23.1 32.4C18.6 56.1 9.4 43.2 9.4 28.5V11.7c15.4-9 30.5-9 46.3 0v16.8z" fill="#f7345e" class="color000 svgShape"></path><path d="M21.2 32.1c-.8-.8-2-.8-2.8 0s-.8 2 0 2.8l8.1 8.1c.4.4.9.6 1.4.6s1-.2 1.4-.6l17.3-17.3c.8-.8.8-2 0-2.8s-2-.8-2.8 0L27.9 38.8l-6.7-6.7z" fill="#f7345e" class="color000 svgShape"></path></svg></g></svg>