<svg id="SvgjsSvg1067" width="288" height="288" xmlns="http://www.w3.org/2000/svg" version="1.1" xmlns:xlink="http://www.w3.org/1999/xlink" xmlns:svgjs="http://svgjs.com/svgjs"><defs id="SvgjsDefs1068"></defs><g id="SvgjsG1069" transform="matrix(1,0,0,1,0,0)"><svg xmlns="http://www.w3.org/2000/svg" enable-background="new 0 0 100 100" viewBox="0 0 100 100" width="288" height="288"><path d="M92.1,25.5l-5-4.9l-3.5-3.5l-8.5-8.5c-0.8-0.8-2-0.8-2.8,0s-0.8,2,0,2.8l3.5,3.5L68.7,22L68,21.3c-2.3-2.3-6.2-2.3-8.5,0	L29.8,51c-2.3,2.3-2.3,6.1,0,8.5l-2.1,2.1c-1.3,1.3-2,3.1-2,5c0,1.2,0.3,2.3,0.8,3.3L7.9,88.4c-0.8,0.8-0.8,2,0,2.8
	c0.4,0.5,0.9,0.7,1.4,0.7s1-0.2,1.4-0.6l18.6-18.6c1,0.5,2.1,0.8,3.3,0.8c1.9,0,3.6-0.7,5-2l2.1-2.1l1.4,1.4c2.3,2.3,6.2,2.3,8.5,0
	L75,45.4l4.2-4.2c1.1-1.1,1.8-2.6,1.8-4.2s-0.6-3.1-1.8-4.2l-0.6-0.8l7.1-7.1l3.5,3.5c0.4,0.4,0.9,0.6,1.4,0.6s1-0.2,1.4-0.6
	C92.8,27.5,92.8,26.3,92.1,25.5z M76.5,38.2L73.7,41L66.6,34c-0.8-0.8-2-0.8-2.8,0c-0.8,0.8-0.8,2.1,0,2.8l7.1,7.1L66.7,48L59.6,41
	c-0.8-0.8-2-0.8-2.8,0s-0.8,2,0,2.8l7.1,7.1L59.7,55L52.6,48c-0.8-0.8-2-0.8-2.8,0s-0.8,2,0,2.8l7.1,7.1L52.7,62L45.6,55
	c-0.8-0.8-2-0.8-2.8,0s-0.8,2,0,2.8l7.1,7.1l-3.1,3.1c-0.8,0.8-2.1,0.8-2.8,0l-1.4-1.4c-1.6-1.6-4.1-1.6-5.7,0l-2.1,2.1
	c-1.1,1.1-3.1,1.1-4.2,0c-0.6-0.6-0.9-1.3-0.9-2.1s0.3-1.6,0.9-2.1l2.1-2.1c1.5-1.6,1.5-4.1,0-5.7c-0.8-0.8-0.8-2,0-2.8l29.7-29.7
	c0.4-0.4,0.9-0.6,1.4-0.6s1,0.2,1.4,0.6l5.7,5.7l5.7,5.7c0.4,0.4,0.6,0.9,0.6,1.4C77.1,37.5,76.9,38,76.5,38.2z M75.8,29l-4.2-4.2
	l7.1-7.1l4.2,4.2L75.8,29z" fill="#f7345e" class="color000 svgShape"></path></svg></g></svg>