<svg id="SvgjsSvg1106" width="288" height="288" xmlns="http://www.w3.org/2000/svg" version="1.1" xmlns:xlink="http://www.w3.org/1999/xlink" xmlns:svgjs="http://svgjs.com/svgjs"><defs id="SvgjsDefs1107"></defs><g id="SvgjsG1108" transform="matrix(1,0,0,1,0,0)"><svg xmlns="http://www.w3.org/2000/svg" enable-background="new 0 0 500 500" viewBox="0 0 500 500" width="288" height="288"><path d="M249.9,98.3c-26.3,0-47.8,21.5-47.8,47.9V167H144c-15,0-28.3,10.6-31.5,25.3L74.6,362.5c-2.1,9.7,0.3,19.6,6.5,27.3
		c6.2,7.6,15.3,12,25,12h287.8c9.8,0,18.9-4.4,25-11.9c6.2-7.7,8.6-17.6,6.5-27.4l-37.9-170.1c-3.2-14.6-16.5-25.3-31.5-25.3h-58.2
		v-20.9C297.8,119.7,276.4,98.3,249.9,98.3z M218.4,146.2c0-17.5,14.2-31.7,31.7-31.7c17.4,0,31.6,14.2,31.6,31.7V167h-63.3V146.2z
		 M356,183.2c7.5,0,14.1,5.3,15.7,12.6l37.9,170c1,4.9-0.1,9.9-3.3,13.7c-3.1,3.8-7.6,5.9-12.4,5.9H106.1c-4.9,0-9.4-2.2-12.5-6
		c-3.1-3.8-4.3-8.8-3.3-13.6l37.9-170.1c1.6-7.3,8.2-12.6,15.7-12.6h58.2h95.7H356z" fill="#39e75f" class="color000 svgShape"></path><path d="M141.2,216.8l-25.3,123.3c-1.4,7.1,0.5,14.4,5,19.8c4.2,5.1,10.3,8,16.7,8h57.6v-16.2h-57.6c-2.2,0-3.6-1.3-4.3-2.1
		c-1.4-1.8-2-4.1-1.6-6.4L157,220.1c1.4-6.6,6.5-11.2,12.5-11.2h114.7v-16.2H169.5C156,192.7,144,202.8,141.2,216.8z" fill="#39e75f" class="color000 svgShape"></path><polygon points="193.5 254.3 173.4 254.3 173.4 319.8 219.3 319.8 219.3 303.7 193.5 303.7" fill="#39e75f" class="color000 svgShape"></polygon><path d="M268.5 285.8c3.6-1 6.4-2.8 8.2-5.5 1.8-2.6 2.8-5.6 2.8-8.9 0-4.5-1.6-8.5-4.7-12-3.2-3.5-8.2-5.2-15.1-5.2h-33.3v65.5h31.2c9.8 0 16.2-1.9 19.2-5.7 3-3.8 4.5-8.2 4.5-13C281.2 292.9 277 287.8 268.5 285.8zM244.9 268.3h9c4.5 0 6.7 1.8 6.7 5.5 0 1.3-.5 2.6-1.4 3.8-1 1.2-2.6 1.8-4.9 1.8h-9.3V268.3zM260 303.4c-1.1 1.2-2.9 1.8-5.4 1.8h-9.8v-11.9h9.1c2.9 0 5 .6 6.1 1.9 1.1 1.3 1.7 2.7 1.7 4.2C261.7 300.9 261.2 302.2 260 303.4zM313.1 296c3 .6 5.1 1.3 6.3 2.1 1.2.8 1.8 1.9 1.8 3.3 0 2.7-2.5 4-7.6 4-6.5 0-10.5-2.6-12.1-7.9l-18.7 3.4c3.7 13.3 13.6 20 29.6 20 8.7 0 15.8-2.1 21.2-6.2 5.4-4.1 8.1-9.5 8.1-16.1 0-4.2-1.1-7.8-3.3-10.9-2.2-3.1-5-5.3-8.3-6.6-3.3-1.3-8.9-2.7-16.7-4.4-2.8-.6-4.8-1.3-5.8-1.9-1-.7-1.5-1.6-1.5-2.8 0-2.7 2.2-4.1 6.6-4.1 5.3 0 8.8 2.2 10.5 6.6l16.7-5c-4.3-10.7-13.1-16.1-26.5-16.1-8.8 0-15.5 2-20.2 6.1-4.7 4.1-7 9.2-7 15.4 0 4.8 1.6 9 4.9 12.5C294.2 290.9 301.6 293.8 313.1 296z" fill="#39e75f" class="color000 svgShape"></path></svg></g></svg>