<svg id="SvgjsSvg1072" width="288" height="288" xmlns="http://www.w3.org/2000/svg" version="1.1" xmlns:xlink="http://www.w3.org/1999/xlink" xmlns:svgjs="http://svgjs.com/svgjs"><defs id="SvgjsDefs1073"></defs><g id="SvgjsG1074" transform="matrix(1,0,0,1,0,0)"><svg xmlns="http://www.w3.org/2000/svg" enable-background="new 0 0 160 160" viewBox="0 0 160 160" width="288" height="288"><path d="M89.594,81.019H70.406c-13.758,0-24.951-11.242-24.951-25.061c0-7.781,3.682-15.239,9.849-19.948l1.631-1.246
	c6.026-4.604,7.198-13.271,2.614-19.317c-2.226-2.936-5.458-4.826-9.102-5.32c-3.639-0.496-7.255,0.462-10.18,2.696l-1.628,1.245
	c-9.309,7.11-15.902,17.204-18.887,28.381c-0.149,0.217-0.275,0.453-0.352,0.72c-0.092,0.32-0.115,0.642-0.082,0.954
	c-0.896,3.855-1.367,7.824-1.367,11.836c0,29.027,23.531,52.643,52.455,52.643h19.188c13.758,0,24.95,11.242,24.95,25.061v2.549
	c0,7.604,6.169,13.791,13.752,13.791s13.752-6.187,13.752-13.791v-2.549C142.048,104.634,118.517,81.019,89.594,81.019z
	 M24.952,55.958c0-2.822,0.277-5.618,0.792-8.358l13.06,3.768c-0.221,1.513-0.348,3.045-0.348,4.59
	c0,4.599,0.977,8.971,2.723,12.929l-13.227,3.35C26.02,67.177,24.952,61.692,24.952,55.958z M42.89,19.629l1.628-1.245
	c1.187-0.906,2.605-1.384,4.07-1.384c0.304,0,0.611,0.021,0.917,0.062c1.787,0.243,3.373,1.17,4.466,2.613
	c2.262,2.983,1.685,7.256-1.285,9.525l-1.63,1.245c-5.322,4.064-9.189,9.729-11.148,16.037L26.93,42.738
	C29.691,33.645,35.236,25.475,42.89,19.629z M30.024,76.871l13.609-3.447c2.923,4.497,6.935,8.218,11.664,10.775l-5.573,12.382
	C41.291,92.234,34.383,85.322,30.024,76.871z M54.287,98.626l5.584-12.406c3.301,1.161,6.844,1.799,10.535,1.799h7.487l1.765,13.582
	h-9.251C64.732,101.601,59.301,100.542,54.287,98.626z M84.701,101.601l-1.765-13.582h6.659c7.235,0,14.075,1.714,20.153,4.747
	l-5.917,12.205c-4.29-2.152-9.122-3.37-14.235-3.37H84.701z M108.127,107.57l5.973-12.32c6.802,4.391,12.364,10.548,16.043,17.826
	l-11.359,7.574C116.448,115.393,112.744,110.882,108.127,107.57z M135.048,136.21c0,3.744-3.029,6.791-6.752,6.791
	s-6.752-3.047-6.752-6.791v-2.549c0-2.813-0.366-5.542-1.048-8.144l11.687-7.792c1.848,4.964,2.865,10.333,2.865,15.936V136.21z" fill="#f7345e" class="color000 svgShape"></path><ellipse cx="48.667" cy="23.618" rx="2.682" ry="2.693" fill="#f7345e" class="color000 svgShape"></ellipse></svg></g></svg>